<?xml version="1.0" encoding="iso-8859-1"?>
<!-- Generator: Adobe Illustrator 19.0.0, SVG Export Plug-In . SVG Version: 6.00 Build 0)  -->
<svg version="1.1" id="Capa_1" xmlns="http://www.w3.org/2000/svg" xmlns:xlink="http://www.w3.org/1999/xlink" x="0px" y="0px"
	 viewBox="0 0 512.001 512.001" style="enable-background:new 0 0 512.001 512.001;" xml:space="preserve">
<path style="fill:#E6E9ED;" d="M221.885,48.45c-103.046,0-186.582,84.059-186.582,187.75c0,18.7,2.73,36.756,7.788,53.801h224.058
	c3.771,0,6.828,3.076,6.828,6.873c0,8.605-0.829,17.059-2.417,25.274c2.599,1.006,4.446,3.534,4.446,6.504
	c0,8.874-0.89,17.582-2.555,26.045c2.117,1.205,3.549,3.488,3.549,6.111c0,20.704-4.665,40.561-13.179,58.379
	c82.853-19.148,144.646-93.805,144.646-182.986C408.467,132.509,324.932,48.45,221.885,48.45z"/>
<path style="opacity:0.1;fill:#231F20;enable-background:new    ;" d="M71.134,290.001c-5.058-17.044-7.778-35.102-7.778-53.801
	c0-98.943,76.061-180.008,172.556-187.225c-4.631-0.346-9.308-0.525-14.027-0.525c-103.046,0-186.582,84.059-186.582,187.75
	c0,18.7,2.73,36.756,7.788,53.801H71.134z"/>
<path style="fill:#FFFFFF;" d="M267.149,290.001c2.689,0,5.009,1.568,6.122,3.844c15.697-14.179,25.579-34.748,25.579-57.645
	c0-42.773-34.459-77.447-76.965-77.447S144.92,193.427,144.92,236.2c0,20.908,8.248,39.867,21.63,53.801L267.149,290.001
	L267.149,290.001z"/>
<path style="fill:#B1E8FF;" d="M463.357,430.816c2.622,0,5.142,0.51,7.5,1.439v-92.837c-2.445,0.382-4.95,0.583-7.5,0.583
	s-5.055-0.201-7.5-0.583v92.837C458.215,431.325,460.735,430.816,463.357,430.816z"/>
<g>
	<path style="fill:#D7F7FF;" d="M463.357,345.622c-26.822,0-48.643-21.957-48.643-48.947V188.991c0-3.381,2.723-6.119,6.081-6.119
		h85.126c3.358,0,6.08,2.738,6.08,6.119v107.684C512,323.665,490.179,345.622,463.357,345.622z"/>
	<path style="fill:#D7F7FF;" d="M487.104,457.448c-0.699-14.85-11.062-26.633-23.748-26.633c-12.685,0-23.049,11.783-23.747,26.633
		H487.104z"/>
</g>
<path style="fill:#B1E8FF;" d="M499.948,456.556H418.2c2.833,0,2.833,24.898,0,24.898h81.749c2.833,0,5.151-2.318,5.151-5.15
	v-14.596C505.099,458.874,502.781,456.556,499.948,456.556z"/>
<path style="fill:#D7F7FF;" d="M381.608,430.816c2.622,0,5.142,0.51,7.5,1.439v-92.837c-2.445,0.382-4.95,0.583-7.5,0.583
	s-5.055-0.201-7.5-0.584v92.838C376.466,431.325,378.986,430.816,381.608,430.816z"/>
<path style="fill:#B1E8FF;" d="M381.608,345.622c-26.821,0-48.643-21.957-48.643-48.947V188.991c0-3.381,2.722-6.119,6.081-6.119
	h85.125c3.358,0,6.081,2.738,6.081,6.119v107.684C430.252,323.665,408.431,345.622,381.608,345.622z"/>
<path style="opacity:0.1;fill:#231F20;enable-background:new    ;" d="M355.478,296.675V188.991c0-3.381,2.722-6.119,6.08-6.119
	h-22.512c-3.358,0-6.081,2.738-6.081,6.119v107.684c0,26.99,21.821,48.947,48.643,48.947c3.875,0,7.641-0.471,11.257-1.336
	C371.455,339.159,355.478,319.765,355.478,296.675z"/>
<path style="fill:#B1E8FF;" d="M405.355,457.448c-0.698-14.85-11.062-26.633-23.748-26.633c-12.685,0-23.048,11.783-23.747,26.633
	H405.355z"/>
<path style="fill:#FFFFFF;" d="M423.351,476.304c0,2.832-2.318,5.15-5.151,5.15h-73.183c-2.833,0-5.151-2.318-5.151-5.15v-14.596
	c0-2.834,2.318-5.152,5.151-5.152H418.2c2.833,0,5.151,2.318,5.151,5.152V476.304z"/>
<path style="fill:#D7F7FF;" d="M423.351,476.304c0,2.832-2.318,5.15-5.151,5.15h-73.183c-2.833,0-5.151-2.318-5.151-5.15v-14.596
	c0-2.834,2.318-5.152,5.151-5.152H418.2c2.833,0,5.151,2.318,5.151,5.152V476.304z"/>
<path style="fill:#FF9F3D;" d="M273.032,331.001c3.927-12.584,6.024-25.903,6.024-39.605c0-3.797-3.057-6.873-6.828-6.873H9.851
	c-3.771,0-6.829,3.076-6.829,6.873c0,13.702,2.097,27.021,6.024,39.605H273.032z"/>
<path style="opacity:0.1;fill:#231F20;enable-background:new    ;" d="M37.444,331.001c-3.927-12.584-6.024-25.903-6.024-39.605
	c0-3.797,3.058-6.873,6.829-6.873H9.851c-3.771,0-6.829,3.076-6.829,6.873c0,13.702,2.097,27.021,6.024,39.605H37.444z"/>
<path style="fill:#FCC96C;" d="M275.964,360.001c3.337-11.772,5.121-24.137,5.121-36.828c0-3.852-3.102-6.973-6.929-6.973H7.922
	c-3.827,0-6.928,3.121-6.928,6.973c0,12.691,1.783,25.056,5.12,36.828H275.964z"/>
<path style="opacity:0.1;fill:#231F20;enable-background:new    ;" d="M34.48,360.001c-3.337-11.772-5.12-24.137-5.12-36.828
	c0-3.852,3.101-6.973,6.928-6.973H7.922c-3.827,0-6.928,3.121-6.928,6.973c0,12.691,1.783,25.056,5.12,36.828H34.48z"/>
<path style="fill:#FB8276;" d="M85.351,480.142c-0.913,0-1.815-0.18-2.658-0.529C32.458,458.78,0,409.995,0,355.329
	c0-3.879,3.124-7.021,6.978-7.021H275.1c3.854,0,6.979,3.143,6.979,7.021c0,54.666-32.459,103.451-82.693,124.283
	c-0.843,0.35-1.746,0.529-2.659,0.529H85.351V480.142z"/>
<path style="fill:#EF5A50;" d="M82.693,479.612c0.843,0.35,1.745,0.529,2.658,0.529h111.376c0.913,0,1.816-0.18,2.659-0.529
	c22.107-9.168,40.767-23.754,54.736-41.867H27.956C41.927,455.858,60.586,470.444,82.693,479.612z"/>
<path style="opacity:0.1;fill:#231F20;enable-background:new    ;" d="M28.33,355.329c0-3.879,3.124-7.021,6.979-7.021H6.978
	c-3.854,0-6.978,3.143-6.978,7.021c0,54.666,32.458,103.451,82.693,124.283c0.843,0.35,1.745,0.529,2.658,0.529h28.33
	c-0.913,0-1.815-0.18-2.659-0.529C60.788,458.78,28.33,409.995,28.33,355.329z"/>
<g>
	<path style="fill:#FCC96C;" d="M31.175,124.679c-1.074,0-2.025-0.697-2.344-1.726c-3.845-12.365-6.488-15.01-18.839-18.861
		c-1.027-0.318-1.727-1.27-1.727-2.348c0-1.074,0.7-2.025,1.727-2.346c12.351-3.852,14.994-6.494,18.839-18.861
		c0.319-1.027,1.27-1.727,2.344-1.727c1.076,0,2.025,0.699,2.344,1.727c3.847,12.367,6.487,15.01,18.84,18.861
		c1.025,0.32,1.725,1.271,1.725,2.346c0,1.078-0.7,2.029-1.725,2.348c-12.353,3.852-14.993,6.496-18.84,18.861
		C33.2,123.981,32.251,124.679,31.175,124.679z"/>
	<path style="fill:#FCC96C;" d="M469.93,153.146c-1.074,0-2.025-0.697-2.344-1.727c-3.845-12.365-6.487-15.01-18.838-18.861
		c-1.027-0.318-1.727-1.271-1.727-2.348s0.7-2.025,1.727-2.346c12.351-3.852,14.993-6.494,18.838-18.861
		c0.319-1.027,1.27-1.729,2.344-1.729c1.076,0,2.025,0.701,2.344,1.729c3.848,12.367,6.488,15.01,18.84,18.861
		c1.026,0.32,1.725,1.27,1.725,2.346s-0.7,2.029-1.725,2.348c-12.352,3.852-14.993,6.496-18.84,18.861
		C471.955,152.448,471.006,153.146,469.93,153.146z"/>
</g>
<path style="fill:#FFAF68;" d="M390.623,85.899c-1.296,0-2.443-0.842-2.828-2.082c-4.641-14.924-7.829-18.113-22.734-22.76
	c-1.239-0.387-2.083-1.533-2.083-2.834c0-1.299,0.844-2.445,2.083-2.832c14.905-4.646,18.093-7.838,22.734-22.762
	c0.385-1.238,1.533-2.082,2.828-2.082c1.299,0,2.444,0.844,2.829,2.082c4.643,14.924,7.83,18.115,22.735,22.762
	c1.238,0.387,2.083,1.533,2.083,2.832c0,1.301-0.845,2.447-2.083,2.834c-14.906,4.647-18.092,7.836-22.735,22.76
	C393.066,85.058,391.921,85.899,390.623,85.899z"/>
<g>
</g>
<g>
</g>
<g>
</g>
<g>
</g>
<g>
</g>
<g>
</g>
<g>
</g>
<g>
</g>
<g>
</g>
<g>
</g>
<g>
</g>
<g>
</g>
<g>
</g>
<g>
</g>
<g>
</g>
</svg>
