<?xml version="1.0" encoding="iso-8859-1"?>
<!-- Generator: Adobe Illustrator 21.0.0, SVG Export Plug-In . SVG Version: 6.00 Build 0)  -->
<svg xmlns="http://www.w3.org/2000/svg" xmlns:xlink="http://www.w3.org/1999/xlink" version="1.1" id="Capa_1" x="0px" y="0px" viewBox="0 0 512 512" style="enable-background:new 0 0 512 512;" xml:space="preserve" width="512" height="512">
<g>
	<g>
		<path style="fill:#FFCA28;" d="M167.461,334.921C75.123,334.921,0,259.799,0,167.461S75.123,0,167.461,0    c18.921,0,37.515,3.145,55.264,9.348c3.591,1.255,5.655,4.988,4.855,8.668c-0.031,0.149-0.068,0.306-0.104,0.441    c-1.168,4.367-3.88,8.057-6.273,11.311c-1.96,2.665-4.181,5.686-4.181,7.49s2.221,4.824,4.18,7.489    c2.394,3.255,5.106,6.944,6.277,11.326c1.209,4.522,0.707,9.175,0.264,13.279c-0.328,3.045-0.737,6.836,0.068,8.229    c0.845,1.459,4.376,3.011,7.214,4.257c3.752,1.647,8.004,3.516,11.273,6.784c3.269,3.27,5.137,7.521,6.784,11.273    c1.246,2.837,2.797,6.368,4.257,7.214c1.393,0.805,5.185,0.396,8.229,0.068c4.104-0.444,8.756-0.945,13.28,0.265    c4.38,1.17,8.069,3.882,11.323,6.275c2.665,1.96,5.686,4.181,7.491,4.181c1.805,0,4.824-2.221,7.489-4.18    c3.255-2.394,6.944-5.106,11.326-6.277c0.135-0.036,0.291-0.072,0.44-0.104c3.682-0.791,7.401,1.274,8.654,4.858    c6.202,17.748,9.348,36.342,9.348,55.264C334.921,259.799,259.799,334.921,167.461,334.921z M318.455,114.68h0.011H318.455z     M167.461,117.707c-27.435,0-49.754,22.319-49.754,49.754c0,27.434,22.319,49.753,49.754,49.753s49.754-22.319,49.754-49.753    C217.215,140.026,194.896,117.707,167.461,117.707z"/>
	</g>
	<path style="fill:#FFA000;" d="M325.573,112.197c-1.253-3.584-4.973-5.649-8.654-4.858c-0.149,0.031-0.306,0.067-0.44,0.104   c-4.382,1.171-8.071,3.884-11.326,6.277c-2.665,1.959-5.685,4.18-7.489,4.18c-1.459,0-3.712-1.453-5.93-3.045   c2.114,10.69,3.188,21.592,3.188,32.606c0,92.338-75.122,167.46-167.46,167.46c-18.88,0-37.039-3.144-53.985-8.931   c26.815,18.25,59.175,28.931,93.985,28.931c92.338,0,167.46-75.122,167.46-167.46C334.921,148.539,331.775,129.945,325.573,112.197   z"/>
	<path style="fill:#EF5350;" d="M302.881,143.275c-1.64-3.857-3.188-7.501-4.122-10.994c-0.899-3.365-1.404-7.051-1.885-10.846   c-0.276-2.187-1.5-4.141-3.346-5.343c-1.069-0.697-2.177-1.512-3.351-2.374c-3.257-2.393-6.947-5.105-11.329-6.275   c-4.524-1.21-9.176-0.709-13.28-0.265c-3.046,0.327-6.838,0.736-8.229-0.068c-1.46-0.846-3.011-4.377-4.257-7.214   c-1.647-3.752-3.516-8.004-6.784-11.273c-3.27-3.269-7.521-5.137-11.273-6.784c-2.838-1.246-6.369-2.798-7.214-4.257   c-0.806-1.394-0.396-5.185-0.068-8.229c0.443-4.104,0.945-8.757-0.264-13.28c-1.171-4.382-3.884-8.072-6.276-11.329   c-0.862-1.174-1.677-2.281-2.374-3.351c-1.202-1.846-3.156-3.069-5.343-3.346c-3.796-0.48-7.482-0.985-10.846-1.884   c-3.493-0.935-7.137-2.483-10.994-4.123c-7.142-3.035-15.235-6.476-24.185-6.476c-8.95,0-17.045,3.44-24.186,6.476   c-3.857,1.64-7.501,3.188-10.994,4.123c-3.707,0.99-7.764,1.499-12.06,2.038c-7.994,1.002-16.261,2.039-23.726,6.357   c-7.567,4.379-12.6,11.054-17.466,17.509c-2.578,3.42-5.014,6.65-7.663,9.299c-2.648,2.649-5.879,5.085-9.299,7.663   c-6.456,4.866-13.131,9.898-17.51,17.466c-4.318,7.466-5.355,15.732-6.357,23.727c-0.539,4.296-1.048,8.353-2.038,12.06   c-0.935,3.493-2.483,7.137-4.123,10.994c-3.035,7.141-6.476,15.235-6.476,24.186c0,8.949,3.44,17.043,6.476,24.185   c1.64,3.857,3.188,7.501,4.123,10.994c0.99,3.707,1.499,7.764,2.038,12.06c1.002,7.994,2.039,16.261,6.357,23.727   c4.379,7.568,11.055,12.601,17.511,17.467c3.419,2.578,6.649,5.013,9.297,7.661c2.649,2.648,5.085,5.879,7.663,9.299   c4.866,6.456,9.898,13.131,17.466,17.51c7.467,4.319,15.734,5.356,23.729,6.358c4.295,0.539,8.351,1.048,12.057,2.037   c3.493,0.935,7.137,2.483,10.994,4.123c7.142,3.036,15.235,6.477,24.186,6.477c8.949,0,17.043-3.44,24.185-6.477   c3.857-1.64,7.501-3.188,10.994-4.122c3.705-0.99,7.762-1.499,12.056-2.037c7.996-1.003,16.264-2.039,23.73-6.359   c7.567-4.379,12.6-11.054,17.466-17.509c2.578-3.42,5.013-6.65,7.662-9.299c2.648-2.649,5.879-5.085,9.299-7.663   c6.456-4.866,13.131-9.898,17.51-17.466c4.318-7.466,5.355-15.732,6.357-23.727c0.539-4.296,1.048-8.353,2.038-12.06   c0.935-3.493,2.483-7.137,4.123-10.994c3.036-7.142,6.477-15.235,6.477-24.185C309.357,158.511,305.917,150.417,302.881,143.275z    M167.461,217.214c-27.435,0-49.754-22.319-49.754-49.753c0-27.435,22.319-49.754,49.754-49.754s49.754,22.319,49.754,49.754   C217.215,194.895,194.896,217.214,167.461,217.214z"/>
	<path style="fill:#D32F2F;" d="M302.881,143.275c-1.64-3.857-3.188-7.501-4.122-10.994c-0.899-3.365-1.404-7.051-1.885-10.846   c-0.276-2.187-1.5-4.141-3.346-5.343c-1.069-0.697-2.177-1.512-3.351-2.374c-3.257-2.393-6.947-5.105-11.329-6.275   c-4.524-1.21-9.176-0.709-13.28-0.265c-2.826,0.303-6.268,0.665-7.866,0.075c0.29,1.733,0.626,3.419,1.056,5.028   c0.934,3.493,2.482,7.137,4.122,10.994c3.036,7.142,6.477,15.235,6.477,24.186c0,8.949-3.44,17.043-6.477,24.185   c-1.64,3.857-3.188,7.501-4.123,10.994c-0.99,3.707-1.499,7.764-2.038,12.06c-1.002,7.994-2.039,16.261-6.357,23.727   c-4.379,7.567-11.054,12.6-17.51,17.466c-3.42,2.578-6.65,5.014-9.299,7.663c-2.649,2.648-5.084,5.879-7.662,9.299   c-4.866,6.455-9.898,13.13-17.466,17.509c-7.467,4.32-15.734,5.356-23.73,6.359c-4.294,0.538-8.351,1.047-12.056,2.037   c-3.493,0.934-7.137,2.482-10.994,4.122c-7.142,3.036-15.235,6.477-24.185,6.477c-8.95,0-17.044-3.44-24.186-6.477   c-3.857-1.64-7.501-3.188-10.994-4.123c-3.136-0.837-6.534-1.328-10.104-1.787c3.972,5.069,8.358,9.943,14.318,13.392   c7.467,4.319,15.734,5.356,23.729,6.358c4.295,0.539,8.351,1.048,12.057,2.037c3.493,0.935,7.137,2.483,10.994,4.123   c7.142,3.036,15.235,6.477,24.186,6.477c8.949,0,17.043-3.44,24.185-6.477c3.857-1.64,7.501-3.188,10.994-4.122   c3.705-0.99,7.762-1.499,12.056-2.037c7.996-1.003,16.264-2.039,23.73-6.359c7.567-4.379,12.6-11.054,17.466-17.509   c2.578-3.42,5.013-6.65,7.662-9.299c2.648-2.649,5.879-5.085,9.299-7.663c6.456-4.866,13.131-9.898,17.51-17.466   c4.318-7.466,5.355-15.732,6.357-23.727c0.539-4.296,1.048-8.353,2.038-12.06c0.935-3.493,2.483-7.137,4.123-10.994   c3.036-7.142,6.477-15.235,6.477-24.185C309.357,158.511,305.917,150.417,302.881,143.275z"/>
	<g>
		<path style="fill:#FFFFFF;" d="M150.714,80.453h-22.856c-4.143,0-7.5-3.357-7.5-7.5s3.357-7.5,7.5-7.5h22.856    c4.143,0,7.5,3.357,7.5,7.5S154.856,80.453,150.714,80.453z"/>
	</g>
	<g>
		<path style="fill:#FFFFFF;" d="M200.306,94.596c-1.919,0-3.839-0.732-5.303-2.196L178.84,76.237    c-2.93-2.929-2.93-7.678-0.001-10.606c2.93-2.93,7.679-2.929,10.606-0.001l16.163,16.162c2.93,2.929,2.93,7.678,0.001,10.606    C204.145,93.863,202.225,94.596,200.306,94.596z"/>
	</g>
	<g>
		<path style="fill:#FFFFFF;" d="M133.063,257.453h-22.856c-4.143,0-7.5-3.357-7.5-7.5s3.357-7.5,7.5-7.5h22.856    c4.143,0,7.5,3.357,7.5,7.5S137.206,257.453,133.063,257.453z"/>
	</g>
	<g>
		<path style="fill:#FFFFFF;" d="M167.461,280.311c-4.143,0-7.5-3.357-7.5-7.5v-22.857c0-4.143,3.357-7.5,7.5-7.5s7.5,3.357,7.5,7.5    v22.857C174.961,276.953,171.604,280.311,167.461,280.311z"/>
	</g>
	<g>
		<path style="fill:#FFFFFF;" d="M78.194,226.596c-1.92,0-3.839-0.732-5.304-2.197c-2.929-2.929-2.929-7.678,0.001-10.606    l16.163-16.162c2.929-2.929,7.678-2.928,10.606,0.001s2.929,7.678-0.001,10.606l-16.163,16.162    C82.033,225.863,80.113,226.596,78.194,226.596z"/>
	</g>
	<g>
		<path style="fill:#FFFFFF;" d="M204.312,259.103c-1.919,0-3.839-0.732-5.303-2.196c-2.93-2.929-2.93-7.678-0.001-10.606    l16.162-16.163c2.93-2.93,7.679-2.929,10.606-0.001c2.93,2.929,2.93,7.678,0.001,10.606l-16.162,16.163    C208.15,258.37,206.23,259.103,204.312,259.103z"/>
	</g>
	<g>
		<path style="fill:#FFFFFF;" d="M86.276,127.347c-1.919,0-3.839-0.732-5.304-2.196c-2.929-2.93-2.929-7.678,0-10.607l16.162-16.162    c2.93-2.928,7.678-2.928,10.607,0c2.929,2.93,2.929,7.678,0,10.607L91.58,125.15C90.115,126.614,88.195,127.347,86.276,127.347z"/>
	</g>
	<g>
		<path style="fill:#FFFFFF;" d="M80.591,175.735c-1.919,0-3.839-0.732-5.304-2.196l-16.162-16.162    c-2.929-2.93-2.929-7.678,0-10.607c2.93-2.928,7.678-2.928,10.607,0l16.162,16.162c2.929,2.93,2.929,7.678,0,10.607    C84.43,175.003,82.51,175.735,80.591,175.735z"/>
	</g>
	<g>
		<path style="fill:#FFFFFF;" d="M258.937,226.596c-1.919,0-3.839-0.732-5.304-2.196l-16.162-16.162    c-2.929-2.93-2.929-7.678,0-10.607c2.93-2.928,7.678-2.928,10.607,0l16.162,16.162c2.929,2.93,2.929,7.678,0,10.607    C262.775,225.863,260.855,226.596,258.937,226.596z"/>
	</g>
	<g>
		<path style="fill:#FFCA28;" d="M423.321,326.716c-48.897,0-88.679-39.781-88.679-88.679s39.781-88.679,88.679-88.679    S512,189.14,512,238.037S472.219,326.716,423.321,326.716z"/>
	</g>
	<path style="fill:#FFA000;" d="M441.603,151.258C460.219,167.526,472,191.43,472,218.037c0,48.897-39.781,88.679-88.679,88.679   c-6.266,0-12.38-0.657-18.281-1.899c15.597,13.629,35.99,21.899,58.281,21.899c48.897,0,88.679-39.781,88.679-88.679   C512,195.405,481.759,159.707,441.603,151.258z"/>
	<circle style="fill:#8D6E63;" cx="435.617" cy="196.718" r="12.296"/>
	<circle style="fill:#8D6E63;" cx="382.77" cy="236.065" r="15.739"/>
	<circle style="fill:#8D6E63;" cx="409.625" cy="281.118" r="12.296"/>
	<circle style="fill:#8D6E63;" cx="456.542" cy="263.461" r="14.657"/>
	<g>
		<path style="fill:#6D4C41;" d="M468.869,512H43.131c-7.111,0-12.896-5.785-12.896-12.896v-144.52    c0-7.111,5.785-12.896,12.896-12.896h425.738c7.111,0,12.896,5.785,12.896,12.896v144.52C481.766,506.215,475.98,512,468.869,512z    "/>
	</g>
	<path style="fill:#8D6E63;" d="M447.348,422.001h-43.366c-4.143,0-7.5-3.357-7.5-7.5v-43.366c0-4.143,3.357-7.5,7.5-7.5h43.366   c4.143,0,7.5,3.357,7.5,7.5v43.366C454.848,418.644,451.49,422.001,447.348,422.001z"/>
	<path style="fill:#8D6E63;" d="M447.348,490.053h-43.366c-4.143,0-7.5-3.357-7.5-7.5v-43.366c0-4.143,3.357-7.5,7.5-7.5h43.366   c4.143,0,7.5,3.357,7.5,7.5v43.366C454.848,486.695,451.49,490.053,447.348,490.053z"/>
	<path style="fill:#5D4037;" d="M468.869,341.688h-27.104v144.287c0,8.851-7.175,16.026-16.026,16.026H30.573   c1.316,5.726,6.433,10,12.558,10h425.738c7.123,0,12.896-5.774,12.896-12.896v-144.52   C481.766,347.461,475.992,341.688,468.869,341.688z"/>
	<path style="fill:#5D4037;" d="M447.348,363.635h-12.5v40.866c0,4.143-3.357,7.5-7.5,7.5h-30.866v2.5c0,4.143,3.357,7.5,7.5,7.5   h43.366c4.143,0,7.5-3.357,7.5-7.5v-43.366C454.848,366.992,451.49,363.635,447.348,363.635z"/>
	<path style="fill:#8D6E63;" d="M379.482,422.001h-43.366c-4.143,0-7.5-3.357-7.5-7.5v-43.366c0-4.143,3.357-7.5,7.5-7.5h43.366   c4.143,0,7.5,3.357,7.5,7.5v43.366C386.982,418.644,383.625,422.001,379.482,422.001z"/>
	<path style="fill:#5D4037;" d="M379.482,363.635h-12.5v40.866c0,4.143-3.357,7.5-7.5,7.5h-30.866v2.5c0,4.143,3.357,7.5,7.5,7.5   h43.366c4.143,0,7.5-3.357,7.5-7.5v-43.366C386.982,366.992,383.625,363.635,379.482,363.635z"/>
	<path style="fill:#8D6E63;" d="M311.616,422.001H268.25c-4.143,0-7.5-3.357-7.5-7.5v-43.366c0-4.143,3.357-7.5,7.5-7.5h43.366   c4.143,0,7.5,3.357,7.5,7.5v43.366C319.116,418.644,315.759,422.001,311.616,422.001z"/>
	<path style="fill:#5D4037;" d="M311.616,363.635h-12.5v40.866c0,4.143-3.357,7.5-7.5,7.5H260.75v2.5c0,4.143,3.357,7.5,7.5,7.5   h43.366c4.143,0,7.5-3.357,7.5-7.5v-43.366C319.116,366.992,315.759,363.635,311.616,363.635z"/>
	<path style="fill:#8D6E63;" d="M243.751,422.001h-43.366c-4.143,0-7.5-3.357-7.5-7.5v-43.366c0-4.143,3.357-7.5,7.5-7.5h43.366   c4.143,0,7.5,3.357,7.5,7.5v43.366C251.251,418.644,247.893,422.001,243.751,422.001z"/>
	<path style="fill:#5D4037;" d="M243.751,363.635h-12.5v40.866c0,4.143-3.357,7.5-7.5,7.5h-30.866v2.5c0,4.143,3.357,7.5,7.5,7.5   h43.366c4.143,0,7.5-3.357,7.5-7.5v-43.366C251.251,366.992,247.893,363.635,243.751,363.635z"/>
	<path style="fill:#8D6E63;" d="M175.885,422.001h-43.366c-4.143,0-7.5-3.357-7.5-7.5v-43.366c0-4.143,3.357-7.5,7.5-7.5h43.366   c4.143,0,7.5,3.357,7.5,7.5v43.366C183.385,418.644,180.028,422.001,175.885,422.001z"/>
	<path style="fill:#5D4037;" d="M175.885,363.635h-12.5v40.866c0,4.143-3.357,7.5-7.5,7.5h-30.866v2.5c0,4.143,3.357,7.5,7.5,7.5   h43.366c4.143,0,7.5-3.357,7.5-7.5v-43.366C183.385,366.992,180.028,363.635,175.885,363.635z"/>
	<path style="fill:#8D6E63;" d="M108.02,422.001H64.653c-4.143,0-7.5-3.357-7.5-7.5v-43.366c0-4.143,3.357-7.5,7.5-7.5h43.366   c4.143,0,7.5,3.357,7.5,7.5v43.366C115.52,418.644,112.162,422.001,108.02,422.001z"/>
	<path style="fill:#5D4037;" d="M108.02,363.635h-12.5v40.866c0,4.143-3.357,7.5-7.5,7.5H57.153v2.5c0,4.143,3.357,7.5,7.5,7.5   h43.366c4.143,0,7.5-3.357,7.5-7.5v-43.366C115.52,366.992,112.162,363.635,108.02,363.635z"/>
	<path style="fill:#5D4037;" d="M447.348,431.687h-12.5v40.866c0,4.143-3.357,7.5-7.5,7.5h-30.866v2.5c0,4.143,3.357,7.5,7.5,7.5   h43.366c4.143,0,7.5-3.357,7.5-7.5v-43.366C454.848,435.044,451.49,431.687,447.348,431.687z"/>
	<path style="fill:#8D6E63;" d="M379.482,490.053h-43.366c-4.143,0-7.5-3.357-7.5-7.5v-43.366c0-4.143,3.357-7.5,7.5-7.5h43.366   c4.143,0,7.5,3.357,7.5,7.5v43.366C386.982,486.695,383.625,490.053,379.482,490.053z"/>
	<path style="fill:#5D4037;" d="M379.482,431.687h-12.5v40.866c0,4.143-3.357,7.5-7.5,7.5h-30.866v2.5c0,4.143,3.357,7.5,7.5,7.5   h43.366c4.143,0,7.5-3.357,7.5-7.5v-43.366C386.982,435.044,383.625,431.687,379.482,431.687z"/>
	<path style="fill:#8D6E63;" d="M311.616,490.053H268.25c-4.143,0-7.5-3.357-7.5-7.5v-43.366c0-4.143,3.357-7.5,7.5-7.5h43.366   c4.143,0,7.5,3.357,7.5,7.5v43.366C319.116,486.695,315.759,490.053,311.616,490.053z"/>
	<path style="fill:#5D4037;" d="M311.616,431.687h-12.5v40.866c0,4.143-3.357,7.5-7.5,7.5H260.75v2.5c0,4.143,3.357,7.5,7.5,7.5   h43.366c4.143,0,7.5-3.357,7.5-7.5v-43.366C319.116,435.044,315.759,431.687,311.616,431.687z"/>
	<path style="fill:#8D6E63;" d="M243.751,490.053h-43.366c-4.143,0-7.5-3.357-7.5-7.5v-43.366c0-4.143,3.357-7.5,7.5-7.5h43.366   c4.143,0,7.5,3.357,7.5,7.5v43.366C251.251,486.695,247.893,490.053,243.751,490.053z"/>
	<path style="fill:#5D4037;" d="M243.751,431.687h-12.5v40.866c0,4.143-3.357,7.5-7.5,7.5h-30.866v2.5c0,4.143,3.357,7.5,7.5,7.5   h43.366c4.143,0,7.5-3.357,7.5-7.5v-43.366C251.251,435.044,247.893,431.687,243.751,431.687z"/>
	<path style="fill:#8D6E63;" d="M175.885,490.053h-43.366c-4.143,0-7.5-3.357-7.5-7.5v-43.366c0-4.143,3.357-7.5,7.5-7.5h43.366   c4.143,0,7.5,3.357,7.5,7.5v43.366C183.385,486.695,180.028,490.053,175.885,490.053z"/>
	<path style="fill:#5D4037;" d="M175.885,431.687h-12.5v40.866c0,4.143-3.357,7.5-7.5,7.5h-30.866v2.5c0,4.143,3.357,7.5,7.5,7.5   h43.366c4.143,0,7.5-3.357,7.5-7.5v-43.366C183.385,435.044,180.028,431.687,175.885,431.687z"/>
	<path style="fill:#8D6E63;" d="M108.02,490.053H64.653c-4.143,0-7.5-3.357-7.5-7.5v-43.366c0-4.143,3.357-7.5,7.5-7.5h43.366   c4.143,0,7.5,3.357,7.5,7.5v43.366C115.52,486.695,112.162,490.053,108.02,490.053z"/>
	<path style="fill:#5D4037;" d="M108.02,431.687h-12.5v40.866c0,4.143-3.357,7.5-7.5,7.5H57.153v2.5c0,4.143,3.357,7.5,7.5,7.5   h43.366c4.143,0,7.5-3.357,7.5-7.5v-43.366C115.52,435.044,112.162,431.687,108.02,431.687z"/>
</g>















</svg>
